<?xml version="1.0" encoding="UTF-8" standalone="no"?>
<!-- Generator: Adobe Illustrator 18.1.1, SVG Export Plug-In . SVG Version: 6.00 Build 0)  -->

<svg
   xmlns:dc="http://purl.org/dc/elements/1.1/"
   xmlns:cc="http://creativecommons.org/ns#"
   xmlns:rdf="http://www.w3.org/1999/02/22-rdf-syntax-ns#"
   xmlns:svg="http://www.w3.org/2000/svg"
   xmlns="http://www.w3.org/2000/svg"
   xmlns:sodipodi="http://sodipodi.sourceforge.net/DTD/sodipodi-0.dtd"
   xmlns:inkscape="http://www.inkscape.org/namespaces/inkscape"
   version="1.1"
   id="Layer_1"
   x="0px"
   y="0px"
   viewBox="-427 84 144 134"
   enable-background="new -427 84 144 134"
   xml:space="preserve"
   sodipodi:docname="shift-80c342.svg"
   inkscape:version="0.92.3 (2405546, 2018-03-11)"><metadata
   id="metadata3741"><rdf:RDF><cc:Work
       rdf:about=""><dc:format>image/svg+xml</dc:format><dc:type
         rdf:resource="http://purl.org/dc/dcmitype/StillImage" /></cc:Work></rdf:RDF></metadata><defs
   id="defs3739" /><sodipodi:namedview
   pagecolor="#ffffff"
   bordercolor="#666666"
   borderopacity="1"
   objecttolerance="10"
   gridtolerance="10"
   guidetolerance="10"
   inkscape:pageopacity="0"
   inkscape:pageshadow="2"
   inkscape:window-width="1920"
   inkscape:window-height="1173"
   id="namedview3737"
   showgrid="false"
   inkscape:zoom="7.3134328"
   inkscape:cx="45.746939"
   inkscape:cy="67"
   inkscape:window-x="1911"
   inkscape:window-y="-9"
   inkscape:window-maximized="1"
   inkscape:current-layer="Layer_1" />
<g
   id="g3734">
	<rect
   x="-427"
   y="84"
   fill="none"
   width="144"
   height="134"
   id="rect3728" />
	<g
   id="g3732">
		<path
   fill="#80C342"
   d="M-323.4,218h-63.4v-56.5H-427l71.9-77.5l71.9,77.5h-40.2L-323.4,218L-323.4,218z M-375.3,206.5h40.5v-56.5    h25.4l-45.7-49.2l-45.7,49.2h25.4L-375.3,206.5L-375.3,206.5z"
   id="path3730" />
	</g>
</g>
<path
   style="fill:#2d73ff;stroke-width:0.13673469;fill-opacity:1"
   d="M 40.27104,105.7301 40.236531,77.460204 20.241141,77.391837 0.24575217,77.323469 36.017995,38.764286 C 55.692728,17.556735 71.839992,0.20510204 71.900803,0.20510204 c 0.06081,0 16.20807,17.35163296 35.882797,38.55918396 l 35.77222,38.559183 -20.00556,0.06837 -20.00557,0.06837 -0.0345,28.269891 L 103.47568,134 H 71.890612 40.305547 Z M 92.264082,94.278571 V 66.042857 h 12.659348 c 7.58422,0 12.64109,-0.05008 12.61378,-0.12493 -0.0712,-0.195199 -45.526411,-49.09956 -45.636628,-49.09956 -0.105129,0 -45.580214,48.912765 -45.656568,49.107968 -0.02507,0.06409 5.640952,0.116522 12.591154,0.116522 H 51.4719 l 0.09099,18.48186 c 0.05004,10.165022 0.09099,22.871093 0.09099,28.235713 v 9.75386 h 20.3051 20.305102 z"
   id="path4548"
   inkscape:connector-curvature="0"
   transform="translate(-427,84)" /></svg>